# xmcd
#
# Track frame offsets: 
#        150
#        12648
#        23718
#        34857
#        49190
#        61409
#        76791
#        84628
#        94746
#        103793
#
# Disc length: 1563 seconds
#
# Revision: 1
# Processed by: cddbd v1.5.1PL2 Copyright (c) Steve Scherf et al.
# Submitted via: ExactAudioCopy v0.95b3
#
DISCID=7706190a
DTITLE=Red Dirt Rangers - Blue Shoe - Music for Kids of All Ages
DYEAR=2000
DGENRE=Alt Country
TTITLE0=Tumbleweed Twilight Zone
TTITLE1=Bullfrog
TTITLE2=Woogly Boogly Bee
TTITLE3=Blue Shoe
TTITLE4=Black Dogs and White Dogs
TTITLE5=Hey Lottie Lo
TTITLE6=Nobody Else Like Me
TTITLE7=Tree House
TTITLE8=Old Dan Tucker
TTITLE9=Calm and Careful
EXTD=
EXTT0=
EXTT1=
EXTT2=
EXTT3=
EXTT4=
EXTT5=
EXTT6=
EXTT7=
EXTT8=
EXTT9=
PLAYORDER=
